<?xml version="1.0" encoding="utf-8"?>
<svg viewBox="0 0 500 500" xmlns="http://www.w3.org/2000/svg" xmlns:bx="https://boxy-svg.com">
  <defs>
    <radialGradient id="gradient-0" gradientUnits="userSpaceOnUse" cx="250" cy="250" r="250">
      <stop offset="0" style="stop-color: rgb(255, 255, 255);"/>
      <stop offset="1" style="stop-color: rgba(255, 255, 255, 0);"/>
    </radialGradient>
    <mask id="mask-0">
      <circle cx="250" cy="250" r="250" style="fill: url(#gradient-0);" transform="matrix(0.843288, 0, 0, 0.844957, 53.122257, 14.313012)"/>
    </mask>
  </defs>
  <g transform="matrix(1.185834, 0, 0, 1.183492, -62.994175, -16.939337)" style="mask: url(#mask-0);">
    <path transform="matrix(0, 0.525762, -0.525762, 0, 476.866455, 36.803535)" d="M 334.125 3.994 L 383.875 3.994 L 359 405 A 0 0 0 0 1 359 405 L 434.633 10.406 L 482.82 22.779 L 359 405 A 0 0 0 0 1 359 405 L 530.388 41.612 L 573.984 65.579 L 359 405 A 0 0 0 0 1 359 405 L 615.374 95.651 L 651.641 129.707 L 359 405 A 0 0 0 0 1 359 405 L 684.252 169.128 L 710.909 211.133 L 359 405 A 0 0 0 0 1 359 405 L 732.693 257.425 L 748.066 304.74 L 359 405 A 0 0 0 0 1 359 405 L 757.653 354.995 L 760.777 404.647 L 359 405 A 0 0 0 0 1 359 405 L 757.564 455.707 L 748.242 504.575 L 359 405 A 0 0 0 0 1 359 405 L 732.432 553.232 L 711.25 598.248 L 359 405 A 0 0 0 0 1 359 405 L 683.836 641.444 L 652.124 679.777 L 359 405 A 0 0 0 0 1 359 405 L 614.83 714.799 L 574.581 744.042 L 359 405 A 0 0 0 0 1 359 405 L 529.748 768.689 L 483.492 787.003 L 359 405 A 0 0 0 0 1 359 405 L 433.938 799.726 L 384.58 805.962 L 359 405 A 0 0 0 0 1 359 405 L 333.42 805.962 L 284.062 799.726 L 359 405 A 0 0 0 0 1 359 405 L 234.508 787.003 L 188.252 768.689 L 359 405 A 0 0 0 0 1 359 405 L 143.419 744.042 L 103.17 714.799 L 359 405 A 0 0 0 0 1 359 405 L 65.876 679.777 L 34.164 641.444 L 359 405 A 0 0 0 0 1 359 405 L 6.75 598.248 L -14.432 553.232 L 359 405 A 0 0 0 0 1 359 405 L -30.242 504.575 L -39.564 455.707 L 359 405 A 0 0 0 0 1 359 405 L -42.777 404.647 L -39.653 354.995 L 359 405 A 0 0 0 0 1 359 405 L -30.066 304.74 L -14.693 257.425 L 359 405 A 0 0 0 0 1 359 405 L 7.091 211.133 L 33.748 169.128 L 359 405 A 0 0 0 0 1 359 405 L 66.359 129.707 L 102.626 95.651 L 359 405 A 0 0 0 0 1 359 405 L 144.016 65.579 L 187.612 41.612 L 359 405 A 0 0 0 0 1 359 405 L 235.18 22.779 L 283.367 10.406 L 359 405 A 0 0 0 0 1 359 405 Z M 359 405 A 0 0 0 0 0 359 405 A 0 0 0 0 0 359 405" style="fill: rgb(255, 127, 127); fill-opacity: 0.17;" bx:shape="cog 359 405 0 0 401.006 0.014 25 1@e7a7b662"/>
    <path transform="matrix(0, -0.52576, 0.52576, 0, 51.022667, 414.301086)" d="M 334.125 3.994 L 383.875 3.994 L 359.013 404.79 A 0.21 0.21 0 0 1 359.039 404.794 L 434.633 10.406 L 482.82 22.779 L 359.065 404.8 A 0.21 0.21 0 0 1 359.089 404.81 L 530.388 41.612 L 573.984 65.579 L 359.113 404.823 A 0.21 0.21 0 0 1 359.134 404.838 L 615.374 95.651 L 651.641 129.707 L 359.153 404.856 A 0.21 0.21 0 0 1 359.17 404.876 L 684.252 169.128 L 710.909 211.133 L 359.184 404.899 A 0.21 0.21 0 0 1 359.195 404.923 L 732.693 257.425 L 748.066 304.74 L 359.203 404.948 A 0.21 0.21 0 0 1 359.208 404.974 L 757.653 354.995 L 760.777 404.647 L 359.21 405 A 0.21 0.21 0 0 1 359.208 405.026 L 757.564 455.707 L 748.242 504.575 L 359.203 405.052 A 0.21 0.21 0 0 1 359.195 405.077 L 732.432 553.232 L 711.25 598.248 L 359.184 405.101 A 0.21 0.21 0 0 1 359.17 405.123 L 683.836 641.444 L 652.124 679.777 L 359.153 405.144 A 0.21 0.21 0 0 1 359.134 405.162 L 614.83 714.799 L 574.581 744.042 L 359.112 405.177 A 0.21 0.21 0 0 1 359.09 405.19 L 529.748 768.689 L 483.492 787.003 L 359.065 405.2 A 0.21 0.21 0 0 1 359.04 405.206 L 433.938 799.726 L 384.58 805.962 L 359.013 405.21 A 0.21 0.21 0 0 1 358.987 405.21 L 333.42 805.962 L 284.062 799.726 L 358.96 405.206 A 0.21 0.21 0 0 1 358.935 405.2 L 234.508 787.003 L 188.252 768.689 L 358.91 405.19 A 0.21 0.21 0 0 1 358.888 405.177 L 143.419 744.042 L 103.17 714.799 L 358.866 405.162 A 0.21 0.21 0 0 1 358.847 405.144 L 65.876 679.777 L 34.164 641.444 L 358.83 405.123 A 0.21 0.21 0 0 1 358.816 405.101 L 6.75 598.248 L -14.432 553.232 L 358.805 405.077 A 0.21 0.21 0 0 1 358.797 405.052 L -30.242 504.575 L -39.564 455.707 L 358.792 405.026 A 0.21 0.21 0 0 1 358.79 405 L -42.777 404.647 L -39.653 354.995 L 358.792 404.974 A 0.21 0.21 0 0 1 358.797 404.948 L -30.066 304.74 L -14.693 257.425 L 358.805 404.923 A 0.21 0.21 0 0 1 358.816 404.899 L 7.091 211.133 L 33.748 169.128 L 358.83 404.876 A 0.21 0.21 0 0 1 358.847 404.856 L 66.359 129.707 L 102.626 95.651 L 358.866 404.838 A 0.21 0.21 0 0 1 358.887 404.823 L 144.016 65.579 L 187.612 41.612 L 358.911 404.81 A 0.21 0.21 0 0 1 358.935 404.8 L 235.18 22.779 L 283.367 10.406 L 358.961 404.794 A 0.21 0.21 0 0 1 358.987 404.79 Z M 359 404.546 A 0.454 0.454 0 0 0 359 405.454 A 0.454 0.454 0 0 0 359 404.546" style="fill: rgb(255, 230, 0); fill-opacity: 0.17;" bx:shape="cog 359 405 0.454 0.21 401.006 0.014 25 1@c5538b9f"/>
  </g>
</svg>